<mxfile host="app.diagrams.net" agent="Mozilla/5.0 (Windows NT 10.0; Win64; x64) AppleWebKit/537.36 (KHTML, like Gecko) Chrome/127.0.0.0 Safari/537.36" version="24.7.7">
  <diagram name="Page-1" id="yfJnBJ6UTD-bUqDYLVpG">
    <mxGraphModel dx="880" dy="460" grid="1" gridSize="10" guides="1" tooltips="1" connect="1" arrows="1" fold="1" page="1" pageScale="1" pageWidth="850" pageHeight="1100" math="0" shadow="0">
      <root>
        <mxCell id="0" />
        <mxCell id="1" parent="0" />
        <mxCell id="olkhWMaWlTaXKXJD4mxS-3" value="" style="edgeStyle=orthogonalEdgeStyle;rounded=0;orthogonalLoop=1;jettySize=auto;html=1;" edge="1" parent="1" source="olkhWMaWlTaXKXJD4mxS-1" target="olkhWMaWlTaXKXJD4mxS-2">
          <mxGeometry relative="1" as="geometry" />
        </mxCell>
        <mxCell id="olkhWMaWlTaXKXJD4mxS-1" value="Wali Kelas" style="rounded=1;whiteSpace=wrap;html=1;" vertex="1" parent="1">
          <mxGeometry x="40" y="120" width="80" height="40" as="geometry" />
        </mxCell>
        <mxCell id="olkhWMaWlTaXKXJD4mxS-5" value="" style="edgeStyle=orthogonalEdgeStyle;rounded=0;orthogonalLoop=1;jettySize=auto;html=1;" edge="1" parent="1" source="olkhWMaWlTaXKXJD4mxS-2" target="olkhWMaWlTaXKXJD4mxS-4">
          <mxGeometry relative="1" as="geometry" />
        </mxCell>
        <mxCell id="olkhWMaWlTaXKXJD4mxS-2" value="Login" style="whiteSpace=wrap;html=1;rounded=1;" vertex="1" parent="1">
          <mxGeometry x="160" y="120" width="80" height="40" as="geometry" />
        </mxCell>
        <mxCell id="olkhWMaWlTaXKXJD4mxS-7" value="" style="edgeStyle=orthogonalEdgeStyle;rounded=0;orthogonalLoop=1;jettySize=auto;html=1;entryX=0;entryY=0.5;entryDx=0;entryDy=0;" edge="1" parent="1" source="olkhWMaWlTaXKXJD4mxS-4" target="olkhWMaWlTaXKXJD4mxS-8">
          <mxGeometry relative="1" as="geometry" />
        </mxCell>
        <mxCell id="olkhWMaWlTaXKXJD4mxS-9" value="" style="edgeStyle=orthogonalEdgeStyle;rounded=0;orthogonalLoop=1;jettySize=auto;html=1;entryX=0;entryY=0.5;entryDx=0;entryDy=0;" edge="1" parent="1" source="olkhWMaWlTaXKXJD4mxS-4" target="olkhWMaWlTaXKXJD4mxS-6">
          <mxGeometry relative="1" as="geometry" />
        </mxCell>
        <mxCell id="olkhWMaWlTaXKXJD4mxS-21" value="" style="edgeStyle=orthogonalEdgeStyle;rounded=0;orthogonalLoop=1;jettySize=auto;html=1;" edge="1" parent="1" source="olkhWMaWlTaXKXJD4mxS-4" target="olkhWMaWlTaXKXJD4mxS-8">
          <mxGeometry relative="1" as="geometry" />
        </mxCell>
        <mxCell id="olkhWMaWlTaXKXJD4mxS-23" value="" style="edgeStyle=orthogonalEdgeStyle;rounded=0;orthogonalLoop=1;jettySize=auto;html=1;exitX=1;exitY=0.5;exitDx=0;exitDy=0;" edge="1" parent="1" source="olkhWMaWlTaXKXJD4mxS-4" target="olkhWMaWlTaXKXJD4mxS-22">
          <mxGeometry relative="1" as="geometry">
            <mxPoint x="350" y="140" as="sourcePoint" />
            <mxPoint x="440" y="200" as="targetPoint" />
            <Array as="points">
              <mxPoint x="380" y="140" />
              <mxPoint x="380" y="260" />
            </Array>
          </mxGeometry>
        </mxCell>
        <mxCell id="olkhWMaWlTaXKXJD4mxS-4" value="Dasbord" style="whiteSpace=wrap;html=1;rounded=1;" vertex="1" parent="1">
          <mxGeometry x="280" y="120" width="80" height="40" as="geometry" />
        </mxCell>
        <mxCell id="olkhWMaWlTaXKXJD4mxS-6" value="Data Siswa" style="whiteSpace=wrap;html=1;rounded=1;" vertex="1" parent="1">
          <mxGeometry x="400" y="40" width="80" height="40" as="geometry" />
        </mxCell>
        <mxCell id="olkhWMaWlTaXKXJD4mxS-16" value="" style="edgeStyle=orthogonalEdgeStyle;rounded=0;orthogonalLoop=1;jettySize=auto;html=1;entryX=0;entryY=0.75;entryDx=0;entryDy=0;" edge="1" parent="1" source="olkhWMaWlTaXKXJD4mxS-8" target="olkhWMaWlTaXKXJD4mxS-10">
          <mxGeometry relative="1" as="geometry" />
        </mxCell>
        <mxCell id="olkhWMaWlTaXKXJD4mxS-18" value="" style="edgeStyle=orthogonalEdgeStyle;rounded=0;orthogonalLoop=1;jettySize=auto;html=1;" edge="1" parent="1" source="olkhWMaWlTaXKXJD4mxS-8" target="olkhWMaWlTaXKXJD4mxS-17">
          <mxGeometry relative="1" as="geometry" />
        </mxCell>
        <mxCell id="olkhWMaWlTaXKXJD4mxS-8" value="Tabungan" style="whiteSpace=wrap;html=1;rounded=1;" vertex="1" parent="1">
          <mxGeometry x="410" y="120" width="70" height="40" as="geometry" />
        </mxCell>
        <mxCell id="olkhWMaWlTaXKXJD4mxS-10" value="Menabung" style="whiteSpace=wrap;html=1;rounded=1;" vertex="1" parent="1">
          <mxGeometry x="520" y="80" width="80" height="40" as="geometry" />
        </mxCell>
        <mxCell id="olkhWMaWlTaXKXJD4mxS-17" value="Penarikan" style="whiteSpace=wrap;html=1;rounded=1;" vertex="1" parent="1">
          <mxGeometry x="520" y="160" width="80" height="40" as="geometry" />
        </mxCell>
        <mxCell id="olkhWMaWlTaXKXJD4mxS-27" value="" style="edgeStyle=orthogonalEdgeStyle;rounded=0;orthogonalLoop=1;jettySize=auto;html=1;" edge="1" parent="1" source="olkhWMaWlTaXKXJD4mxS-22" target="olkhWMaWlTaXKXJD4mxS-26">
          <mxGeometry relative="1" as="geometry" />
        </mxCell>
        <mxCell id="olkhWMaWlTaXKXJD4mxS-22" value="Laporan data tabungan&amp;nbsp;" style="whiteSpace=wrap;html=1;rounded=1;" vertex="1" parent="1">
          <mxGeometry x="400" y="240" width="130" height="40" as="geometry" />
        </mxCell>
        <mxCell id="olkhWMaWlTaXKXJD4mxS-26" value="Detail" style="whiteSpace=wrap;html=1;rounded=1;" vertex="1" parent="1">
          <mxGeometry x="560" y="240" width="80" height="40" as="geometry" />
        </mxCell>
        <mxCell id="olkhWMaWlTaXKXJD4mxS-31" value="" style="edgeStyle=orthogonalEdgeStyle;rounded=0;orthogonalLoop=1;jettySize=auto;html=1;" edge="1" parent="1" source="olkhWMaWlTaXKXJD4mxS-29" target="olkhWMaWlTaXKXJD4mxS-30">
          <mxGeometry relative="1" as="geometry" />
        </mxCell>
        <mxCell id="olkhWMaWlTaXKXJD4mxS-29" value="Siswa" style="rounded=1;whiteSpace=wrap;html=1;" vertex="1" parent="1">
          <mxGeometry x="40" y="400" width="80" height="40" as="geometry" />
        </mxCell>
        <mxCell id="olkhWMaWlTaXKXJD4mxS-33" value="" style="edgeStyle=orthogonalEdgeStyle;rounded=0;orthogonalLoop=1;jettySize=auto;html=1;entryX=0;entryY=0.5;entryDx=0;entryDy=0;" edge="1" parent="1" source="olkhWMaWlTaXKXJD4mxS-30" target="olkhWMaWlTaXKXJD4mxS-32">
          <mxGeometry relative="1" as="geometry" />
        </mxCell>
        <mxCell id="olkhWMaWlTaXKXJD4mxS-35" value="" style="edgeStyle=orthogonalEdgeStyle;rounded=0;orthogonalLoop=1;jettySize=auto;html=1;entryX=0;entryY=0.5;entryDx=0;entryDy=0;" edge="1" parent="1" source="olkhWMaWlTaXKXJD4mxS-30" target="olkhWMaWlTaXKXJD4mxS-34">
          <mxGeometry relative="1" as="geometry" />
        </mxCell>
        <mxCell id="olkhWMaWlTaXKXJD4mxS-37" value="" style="edgeStyle=orthogonalEdgeStyle;rounded=0;orthogonalLoop=1;jettySize=auto;html=1;entryX=0;entryY=0.5;entryDx=0;entryDy=0;" edge="1" parent="1" source="olkhWMaWlTaXKXJD4mxS-30" target="olkhWMaWlTaXKXJD4mxS-36">
          <mxGeometry relative="1" as="geometry" />
        </mxCell>
        <mxCell id="olkhWMaWlTaXKXJD4mxS-30" value="Login" style="whiteSpace=wrap;html=1;rounded=1;" vertex="1" parent="1">
          <mxGeometry x="160" y="400" width="80" height="40" as="geometry" />
        </mxCell>
        <mxCell id="olkhWMaWlTaXKXJD4mxS-32" value="Menampilkan Profil" style="whiteSpace=wrap;html=1;rounded=1;" vertex="1" parent="1">
          <mxGeometry x="280" y="320" width="160" height="40" as="geometry" />
        </mxCell>
        <mxCell id="olkhWMaWlTaXKXJD4mxS-34" value="Menampilkan Tabungan" style="whiteSpace=wrap;html=1;rounded=1;" vertex="1" parent="1">
          <mxGeometry x="280" y="400" width="160" height="40" as="geometry" />
        </mxCell>
        <mxCell id="olkhWMaWlTaXKXJD4mxS-36" value="Menampilkan Penarikan" style="whiteSpace=wrap;html=1;rounded=1;" vertex="1" parent="1">
          <mxGeometry x="280" y="480" width="160" height="40" as="geometry" />
        </mxCell>
      </root>
    </mxGraphModel>
  </diagram>
</mxfile>
